<svg viewBox="0 0 100 100" xmlns="http://www.w3.org/2000/svg">
  <defs>
    <linearGradient id="a" gradientTransform="rotate(90)">
      <stop offset="0%" stop-color="#9528DC" />
      <stop offset="100%" stop-color="#B162E5" />
    </linearGradient>
  </defs>
  <path
    d="M15.516 27.066h7.032a3.507 3.507 0 013.511 3.323l.006.193v36.33a7.034 7.034 0 007.032 7.03 7.034 7.034 0 007.032-7.03c0-3.018-1.92-5.596-4.585-6.593-1.346-.504-2.356-1.625-2.441-3.03l-.006-.192v-7.383c0-2.183 1.992-3.912 4.131-3.487A21.129 21.129 0 0153.71 71.453c-1.67 7.954-8.102 14.4-16.071 16.07-13.475 2.827-25.398-7.295-25.635-20.22L12 66.912V30.582a3.507 3.507 0 013.323-3.51l.193-.006h7.032zM42.62 13.003c23.91 1.26 43.131 20.48 44.377 44.387a2.36 2.36 0 01-2.184 2.485l-.16.005h-4.704a2.34 2.34 0 01-2.329-2.197c-1.099-18.97-16.335-34.352-35.293-35.378a2.318 2.318 0 01-2.192-2.168l-.006-.16v-4.63c0-1.24.967-2.244 2.172-2.34l.158-.007zm-.113 14.057l.157.006c16.13 1.246 29.037 14.151 30.268 30.28.102 1.362-.996 2.534-2.359 2.534h-4.717c-1.216 0-2.213-.938-2.33-2.153-1.01-11.28-9.977-20.348-21.229-21.27a2.336 2.336 0 01-2.168-2.33v-4.702a2.364 2.364 0 012.535-2.359z"
    fill="url(#a)"
  />
</svg>
