<svg viewBox="0 0 259 259" xmlns="http://www.w3.org/2000/svg">
  <path
    d="M244.082 258.307c7.854 0 14.223-6.369 14.223-14.225V14.812c0-7.857-6.368-14.224-14.223-14.224H14.812C6.955.588.588 6.955.588 14.812v229.27c0 7.855 6.366 14.225 14.224 14.225h229.27z"
    fill="#3C5A99"
  />
  <path
    d="M178.409 258.307v-99.803h33.499l5.016-38.895h-38.515V94.777c0-11.261 3.127-18.935 19.275-18.935l20.596-.009V41.045c-3.562-.474-15.788-1.533-30.012-1.533-29.695 0-50.025 18.126-50.025 51.413v28.684h-33.585v38.895h33.585v99.803h40.166z"
    fill="#FFF"
  />
</svg>
