<svg viewBox="0 0 1083 232" xmlns="http://www.w3.org/2000/svg">
  <path
    d="M1049.2 94.8c10.667 0 18.833 3.167 24.5 9.5 5.667 6.333 8.5 16.567 8.5 30.7v49.2c0 3.867-1.167 6.833-3.5 8.9s-5.367 3.1-9.1 3.1c-3.6 0-6.567-1.033-8.9-3.1s-3.5-5.033-3.5-8.9V135c0-7.333-1.3-12.567-3.9-15.7-2.6-3.133-6.567-4.7-11.9-4.7-6.533 0-11.733 2.233-15.6 6.7-3.867 4.467-5.8 10.567-5.8 18.3v44.6c0 3.867-1.167 6.833-3.5 8.9s-5.3 3.1-8.9 3.1c-3.6 0-6.6-1.033-9-3.1-2.4-2.067-3.6-5.033-3.6-8.9V135c0-7.333-1.3-12.567-3.9-15.7-2.6-3.133-6.567-4.7-11.9-4.7-6.533 0-11.7 2.233-15.5 6.7-3.8 4.467-5.7 10.567-5.7 18.3v44.6c0 3.867-1.2 6.833-3.6 8.9-2.4 2.067-5.4 3.1-9 3.1-3.6 0-6.567-1.033-8.9-3.1s-3.5-5.033-3.5-8.9v-77.4c0-3.733 1.2-6.6 3.6-8.6 2.4-2 5.4-3 9-3 3.467 0 6.3.967 8.5 2.9 2.2 1.933 3.3 4.7 3.3 8.3v4.8c3.067-5.333 7.167-9.4 12.3-12.2 5.133-2.8 11.033-4.2 17.7-4.2 14.667 0 24.467 6.133 29.4 18.4 2.933-5.6 7.267-10.067 13-13.4s12.2-5 19.4-5zM867.4 94.8c13.6 0 23.7 3.367 30.3 10.1 6.6 6.733 9.9 16.967 9.9 30.7v48.8c0 3.6-1.067 6.433-3.2 8.5s-5.067 3.1-8.8 3.1c-3.467 0-6.3-1.067-8.5-3.2s-3.3-4.933-3.3-8.4V180c-2.267 5.2-5.833 9.267-10.7 12.2-4.867 2.933-10.5 4.4-16.9 4.4-6.533 0-12.467-1.333-17.8-4s-9.533-6.333-12.6-11-4.6-9.867-4.6-15.6c0-7.2 1.833-12.867 5.5-17 3.667-4.133 9.633-7.133 17.9-9s19.667-2.8 34.2-2.8h5v-4.6c0-6.533-1.4-11.3-4.2-14.3-2.8-3-7.333-4.5-13.6-4.5-3.867 0-7.8.567-11.8 1.7-4 1.133-8.733 2.767-14.2 4.9-3.467 1.733-6 2.6-7.6 2.6-2.4 0-4.367-.867-5.9-2.6-1.533-1.733-2.3-4-2.3-6.8 0-2.267.567-4.233 1.7-5.9 1.133-1.667 3.033-3.233 5.7-4.7 4.667-2.533 10.233-4.533 16.7-6 6.467-1.467 12.833-2.2 19.1-2.2zm16.4 55.6h-3.6c-8.933 0-15.867.4-20.8 1.2-4.933.8-8.467 2.2-10.6 4.2-2.133 2-3.2 4.733-3.2 8.2 0 4.267 1.5 7.767 4.5 10.5 3 2.733 6.7 4.1 11.1 4.1 6.667 0 12.1-2.233 16.3-6.7 4.2-4.467 6.3-10.233 6.3-17.3v-4.2zM786.6 95.2c3.6 0 6.6 1 9 3 2.4 2 3.6 4.933 3.6 8.8v88c0 22.4-11.2 34.4-33.6 36l-5.4.4c-4.8.267-8.5-.4-11.1-2-2.6-1.6-3.9-4.067-3.9-7.4 0-5.467 3.333-8.467 10-9l5.4-.4c4.533-.267 7.933-1.667 10.2-4.2 2.267-2.533 3.4-6.4 3.4-11.6V107c0-3.867 1.167-6.8 3.5-8.8 2.333-2 5.3-3 8.9-3zm-.2-44.4c4.4 0 7.967 1.2 10.7 3.6 2.733 2.4 4.1 5.6 4.1 9.6s-1.333 7.233-4 9.7c-2.667 2.467-6.267 3.7-10.8 3.7s-8.133-1.233-10.8-3.7c-2.667-2.467-4-5.7-4-9.7 0-4 1.333-7.2 4-9.6 2.667-2.4 6.267-3.6 10.8-3.6zM697 177.6c6.667.4 10 3.4 10 9 0 3.2-1.3 5.633-3.9 7.3-2.6 1.667-6.3 2.367-11.1 2.1l-5.4-.4c-22.4-1.6-33.6-13.6-33.6-36V116h-10c-3.6 0-6.367-.8-8.3-2.4-1.933-1.6-2.9-3.933-2.9-7s.967-5.4 2.9-7c1.933-1.6 4.7-2.4 8.3-2.4h10V78.8c0-3.6 1.133-6.467 3.4-8.6s5.333-3.2 9.2-3.2c3.733 0 6.733 1.067 9 3.2 2.267 2.133 3.4 5 3.4 8.6v18.4h17c3.6 0 6.367.8 8.3 2.4 1.933 1.6 2.9 3.933 2.9 7s-.967 5.4-2.9 7c-1.933 1.6-4.7 2.4-8.3 2.4h-17v45.4c0 9.867 4.533 15.133 13.6 15.8l5.4.4zM607.6 95.2c3.867 0 6.933 1.067 9.2 3.2 2.267 2.133 3.4 5 3.4 8.6v77.6c0 3.467-1.167 6.267-3.5 8.4s-5.367 3.2-9.1 3.2c-3.6 0-6.467-1-8.6-3s-3.2-4.733-3.2-8.2v-5c-3.067 5.333-7.2 9.433-12.4 12.3-5.2 2.867-11.067 4.3-17.6 4.3-24 0-36-13.467-36-40.4V107c0-3.6 1.133-6.467 3.4-8.6s5.267-3.2 9-3.2c3.867 0 6.933 1.067 9.2 3.2 2.267 2.133 3.4 5 3.4 8.6v49.4c0 6.933 1.4 12.067 4.2 15.4 2.8 3.333 7.2 5 13.2 5 6.933 0 12.5-2.3 16.7-6.9 4.2-4.6 6.3-10.7 6.3-18.3V107c0-3.6 1.133-6.467 3.4-8.6s5.267-3.2 9-3.2zM460 94.8c10 0 18.767 2.067 26.3 6.2 7.533 4.133 13.333 10.033 17.4 17.7 4.067 7.667 6.1 16.633 6.1 26.9s-2.033 19.267-6.1 27c-4.067 7.733-9.867 13.667-17.4 17.8-7.533 4.133-16.3 6.2-26.3 6.2s-18.767-2.067-26.3-6.2c-7.533-4.133-13.367-10.067-17.5-17.8-4.133-7.733-6.2-16.733-6.2-27s2.067-19.233 6.2-26.9c4.133-7.667 9.967-13.567 17.5-17.7 7.533-4.133 16.3-6.2 26.3-6.2zm0 19.2c-8 0-14.167 2.7-18.5 8.1-4.333 5.4-6.5 13.233-6.5 23.5 0 10.4 2.133 18.267 6.4 23.6 4.267 5.333 10.4 8 18.4 8 8.133 0 14.333-2.667 18.6-8 4.267-5.333 6.4-13.2 6.4-23.6 0-10.267-2.133-18.1-6.4-23.5-4.267-5.4-10.4-8.1-18.4-8.1zM377 196.2c-3.6 0-6.567-1.033-8.9-3.1s-3.5-5.033-3.5-8.9V64.8c0-3.867 1.167-6.8 3.5-8.8 2.333-2 5.3-3 8.9-3 3.6 0 6.6 1 9 3 2.4 2 3.6 4.933 3.6 8.8v119.4c0 3.867-1.2 6.833-3.6 8.9-2.4 2.067-5.4 3.1-9 3.1zM310.4 196.6c-9.733 0-18.3-2.067-25.7-6.2-7.4-4.133-13.1-10-17.1-17.6-4-7.6-6-16.467-6-26.6 0-10.133 2.1-19.1 6.3-26.9 4.2-7.8 10.1-13.833 17.7-18.1 7.6-4.267 16.333-6.4 26.2-6.4 5.2 0 10.433.733 15.7 2.2 5.267 1.467 9.9 3.467 13.9 6 4.267 2.8 6.4 6.333 6.4 10.6 0 2.933-.7 5.3-2.1 7.1-1.4 1.8-3.233 2.7-5.5 2.7-1.467 0-3-.333-4.6-1-1.6-.667-3.2-1.467-4.8-2.4-2.933-1.733-5.733-3.1-8.4-4.1-2.667-1-5.733-1.5-9.2-1.5-8.267 0-14.633 2.7-19.1 8.1-4.467 5.4-6.7 13.167-6.7 23.3 0 10 2.233 17.7 6.7 23.1 4.467 5.4 10.833 8.1 19.1 8.1 3.333 0 6.3-.5 8.9-1.5 2.6-1 5.5-2.367 8.7-4.1 2-1.2 3.733-2.1 5.2-2.7 1.467-.6 2.933-.9 4.4-.9 2.133 0 3.933.933 5.4 2.8 1.467 1.867 2.2 4.2 2.2 7 0 2.267-.5 4.233-1.5 5.9-1 1.667-2.633 3.167-4.9 4.5-4.133 2.667-8.933 4.767-14.4 6.3a61.913 61.913 0 01-16.8 2.3zM89.992 164.736l-16.695 12.466a6.91 6.91 0 01-7.613-11.002l1.264-1.464 18.175-15.312-3.547-11.704-4.34-14.32-21.546 18.462-.551.166a5.976 5.976 0 01-6.919-8.676l25.077-22.919-9.75-33.086 1.232-1.543a10 10 0 0112.54-2.572l1.035.555 7.893 24.478 20.265-18.819-10.08-30.086a7.773 7.773 0 0111.266-4.85l1.874 1.03 8.452 23.754 36.747-33.7c4.615-.66 8.041.168 10.277 2.487 2.236 2.319 2.825 5.644 1.769 9.974l-42.249 35.767 8.14 23.12 18.82-15.797c.77 0 1.538.081 2.292.243 5.9 1.266 9.658 7.076 8.392 12.976l-.082.383-22.976 20.04 22.898 60.753a8.926 8.926 0 01-6.1 11.786c-3.375.88-7.284-.294-11.727-3.52l-19.657-58.155-22.162 18.244 11.267 34.612a7.986 7.986 0 01-11.285 9.453l-3.437-1.768-8.959-31.456zm-.258-51.268l7.827 25.464 21.701-19.497-8.022-23.769-21.506 17.802z"
    fill="currentColor"
  />
  <path
    d="M194.808 222.65V97.29l2.955-1.741C214.79 85.524 224 73.077 224 60.463 224 31.428 175.636 6 115 6S6 31.428 6 60.463c0 11.528 7.669 22.912 22.09 32.493l2.68 1.78V222.65c0 1.85 1.5 3.35 3.35 3.35h157.338c1.85 0 3.35-1.5 3.35-3.35z"
    fill="none"
    stroke="currentColor"
    stroke-width="12"
  />
</svg>
