<svg viewBox="0 0 100 100" xmlns="http://www.w3.org/2000/svg">
  <defs>
    <linearGradient id="a" gradientTransform="rotate(90)">
      <stop offset="0%" stop-color="#9528DC" />
      <stop offset="100%" stop-color="#B162E5" />
    </linearGradient>
  </defs>
  <path
    d="M86.708 24a3.3 3.3 0 013.287 3.125l.005.188v43.062c0 3.581-2.823 6.498-6.352 6.621l-.231.004H18.68c-4.16 0-7.548-3.329-7.677-7.484L11 69.271V31.729a3.304 3.304 0 013.105-3.307l.187-.005h5.486v-1.105a3.304 3.304 0 013.105-3.307l.186-.005h63.64zm-66.93 11.042h-2.195V69.27c0 .293.116.573.322.78a1.094 1.094 0 001.866-.656l.007-.124V35.04zm31.27 28.708H30.202a1.65 1.65 0 00-1.64 1.513l-.005.143v1.104c0 .867.661 1.578 1.503 1.65l.142.007H51.05a1.65 1.65 0 001.64-1.514l.005-.143v-1.104c0-.914-.736-1.656-1.645-1.656zm28.528 0H58.73a1.65 1.65 0 00-1.64 1.513l-.006.143v1.104c0 .867.662 1.578 1.504 1.65l.142.007h20.847a1.65 1.65 0 001.64-1.514l.006-.143v-1.104c0-.914-.737-1.656-1.646-1.656zM51.05 50.5H30.2a1.65 1.65 0 00-1.64 1.513l-.005.143v1.104c0 .867.661 1.578 1.503 1.65l.142.007H51.05a1.65 1.65 0 001.64-1.514l.005-.143v-1.104c0-.914-.736-1.656-1.645-1.656zm28.527 0H58.73a1.65 1.65 0 00-1.64 1.513l-.006.143v1.104c0 .867.662 1.578 1.504 1.65l.142.007h20.847a1.65 1.65 0 001.64-1.514l.006-.143v-1.104c0-.914-.737-1.656-1.646-1.656zm0-17.667H30.201c-.909 0-1.645.742-1.645 1.657v5.52c0 .915.736 1.657 1.645 1.657h49.375c.91 0 1.646-.742 1.646-1.657v-5.52c0-.915-.737-1.657-1.646-1.657z"
    fill="url(#a)"
  />
</svg>
