<svg viewBox="0 0 100 100" xmlns="http://www.w3.org/2000/svg">
  <defs>
    <linearGradient id="a" gradientTransform="rotate(90)">
      <stop offset="0%" stop-color="#9528DC" />
      <stop offset="100%" stop-color="#B162E5" />
    </linearGradient>
  </defs>
  <path
    d="M50 59.016c5.574 0 10.857 1.46 10.857 7.434 0 5.599-2.183 17.702-3.49 22.567C56.495 92.248 53.2 93 50 93s-6.495-.752-7.367-3.983c-1.297-4.83-3.49-16.935-3.49-22.567 0-5.974 5.283-7.434 10.857-7.434zM50 6c21.004 0 38 17.027 38 38.063 0 15.324-8.953 28.16-21.33 34.223-.736.36-1.573-.262-1.449-1.072.434-2.828.785-5.64.954-8.026 8.227-5.331 13.682-14.602 13.682-25.126 0-16.516-13.437-29.949-29.936-29.906-16.327.043-29.677 13.367-29.778 29.72-.064 10.421 5.223 19.633 13.264 25.037.26.174.43.455.455.767.18 2.275.512 4.898.917 7.534.124.81-.713 1.432-1.448 1.072C20.924 72.21 12 59.354 12 44.062 12 23.024 28.999 6 50 6zm.706 12.924c12.927.367 23.4 10.903 23.715 23.852.177 7.27-2.83 13.852-7.72 18.447-.501.47-1.308.3-1.603-.32a11.299 11.299 0 00-3.603-4.31 1.023 1.023 0 01-.106-1.562 16.276 16.276 0 004.897-11.648c0-9.209-7.658-16.66-16.93-16.3-8.436.327-15.28 7.163-15.628 15.613a16.278 16.278 0 004.883 12.336 1.023 1.023 0 01-.106 1.56 11.299 11.299 0 00-3.603 4.31c-.295.621-1.102.792-1.603.32-4.753-4.466-7.728-10.811-7.728-17.84 0-13.726 11.344-24.85 25.135-24.458zM50 33.188c5.996 0 10.857 4.868 10.857 10.874 0 6.007-4.86 10.876-10.857 10.876-5.996 0-10.857-4.87-10.857-10.876 0-6.006 4.86-10.874 10.857-10.874z"
    fill="url(#a)"
  />
</svg>
